HIERARCHY
ROOT Hips
{
	OFFSET 0.000000 0.000000 0.000000
	CHANNELS 6 Xposition Yposition Zposition Zrotation Yrotation Xrotation
	JOINT LHipJoint
	{
		OFFSET 0.000000 0.000000 0.000000
		CHANNELS 6 Xposition Yposition Zposition Zrotation Yrotation Xrotation
		JOINT LeftHip
		{
			OFFSET 1.611894 -0.673180 -0.014919
			CHANNELS 3 Zrotation Yrotation Xrotation
			JOINT LeftKnee
			{
				OFFSET 0.014856 -0.000000 -7.518231
				CHANNELS 6 Xposition Yposition Zposition Zrotation Yrotation Xrotation
				JOINT LeftAnkle
				{
					OFFSET 0.014554 -0.000000 -7.368488
					CHANNELS 6 Xposition Yposition Zposition Zrotation Yrotation Xrotation
					JOINT LeftToe
					{
						OFFSET 0.001350 -2.102140 -0.681086
						CHANNELS 6 Xposition Yposition Zposition Zrotation Yrotation Xrotation
						End Site
						{
							OFFSET 0.000000 -1.101390 0.000000
						}
					}
				}
			}
		}
	}
	JOINT RHipJoint
	{
		OFFSET 0.000000 0.000000 0.000000
		CHANNELS 6 Xposition Yposition Zposition Zrotation Yrotation Xrotation
		JOINT RightHip
		{
			OFFSET -1.611894 -0.673180 -0.014919
			CHANNELS 3 Zrotation Yrotation Xrotation
			JOINT RightKnee
			{
				OFFSET -0.014856 -0.000000 -7.518231
				CHANNELS 6 Xposition Yposition Zposition Zrotation Yrotation Xrotation
				JOINT RightAnkle
				{
					OFFSET -0.014554 -0.000000 -7.368488
					CHANNELS 6 Xposition Yposition Zposition Zrotation Yrotation Xrotation
					JOINT RightToe
					{
						OFFSET -0.001350 -2.102140 -0.681086
						CHANNELS 6 Xposition Yposition Zposition Zrotation Yrotation Xrotation
						End Site
						{
							OFFSET 0.000000 -1.101390 0.000000
						}
					}
				}
			}
		}
	}
	JOINT lowerback
	{
		OFFSET 0.000000 0.000000 0.000000
		CHANNELS 6 Xposition Yposition Zposition Zrotation Yrotation Xrotation
		JOINT Chest
		{
			OFFSET -0.021080 0.169810 2.075730
			CHANNELS 3 Zrotation Yrotation Xrotation
			JOINT Chest2
			{
				OFFSET 0.050700 0.031410 2.084390
				CHANNELS 6 Xposition Yposition Zposition Zrotation Yrotation Xrotation
				JOINT lowerneck
				{
					OFFSET 0.000000 0.000000 0.000000
					CHANNELS 6 Xposition Yposition Zposition Zrotation Yrotation Xrotation
					JOINT Neck
					{
						OFFSET -0.107310 -0.313700 1.604080
						CHANNELS 3 Zrotation Yrotation Xrotation
						JOINT Head
						{
							OFFSET 0.084110 0.308220 1.656790
							CHANNELS 6 Xposition Yposition Zposition Zrotation Yrotation Xrotation
							End Site
							{
								OFFSET 0.039110 0.141460 1.691490
							}
						}
					}
				}
				JOINT LeftCollar
				{
					OFFSET 0.000000 0.000000 0.000000
					CHANNELS 6 Xposition Yposition Zposition Zrotation Yrotation Xrotation
					JOINT LeftShoulder
					{
						OFFSET 2.210152 0.546940 0.732190
						CHANNELS 3 Zrotation Xrotation Yrotation
						JOINT LeftElbow
						{
							OFFSET 4.208010 -0.000001 0.067693
							CHANNELS 6 Xposition Yposition Zposition Zrotation Xrotation Yrotation
							JOINT LeftWrist
							{
								OFFSET 4.447774 -0.000001 0.107699
								CHANNELS 6 Xposition Yposition Zposition Zrotation Xrotation Yrotation
								JOINT lhand
								{
									OFFSET 0.000000 0.000000 0.000000
									CHANNELS 6 Xposition Yposition Zposition Zrotation Xrotation Yrotation
									JOINT LFingers
									{
										OFFSET 0.572473 -0.000000 -0.002868
										CHANNELS 3 Zrotation Xrotation Yrotation
										End Site
										{
											OFFSET 0.461535 0.000000 -0.002313
										}
									}
								}
								JOINT LThumb
								{
									OFFSET 0.000000 0.000000 0.000000
									CHANNELS 6 Xposition Yposition Zposition Zrotation Xrotation Yrotation
									End Site
									{
										OFFSET 0.468585 -0.468590 -0.002347
									}
								}
							}
						}
					}
				}
				JOINT RightCollar
				{
					OFFSET 0.000000 0.000000 0.000000
					CHANNELS 6 Xposition Yposition Zposition Zrotation Yrotation Xrotation
					JOINT RightShoulder
					{
						OFFSET -2.269392 0.546940 0.732190
						CHANNELS 3 Zrotation Xrotation Yrotation
						JOINT RightElbow
						{
							OFFSET -4.208010 -0.000001 0.067693
							CHANNELS 6 Xposition Yposition Zposition Zrotation Xrotation Yrotation
							JOINT RightWrist
							{
								OFFSET -4.447774 -0.000001 0.107699
								CHANNELS 6 Xposition Yposition Zposition Zrotation Xrotation Yrotation
								JOINT rhand
								{
									OFFSET -0.100282 0.186255 0.019922
									CHANNELS 6 Xposition Yposition Zposition Zrotation Xrotation Yrotation
									JOINT RFingers
									{
										OFFSET -0.731912 -0.000000 -0.065197
										CHANNELS 3 Zrotation Xrotation Yrotation
										End Site
										{
											OFFSET -0.590084 -0.000000 -0.052564
										}
									}
								}
								JOINT RThumb
								{
									OFFSET -0.100282 0.186255 0.019922
									CHANNELS 6 Xposition Yposition Zposition Zrotation Xrotation Yrotation
									End Site
									{
										OFFSET -0.599097 -0.601470 -0.053367
									}
								}
							}
						}
					}
				}
			}
		}
	}
}
MOTION
Frames: 6
Frame Time: 0.033333
0.121260 -0.290417 14.488388 -5.145742 4.731748 7.725855 -0.000000 0.000000 -0.000001 0.000001 -0.000001 -0.000002 6.901083 -7.100390 -46.817190 0.014856 -0.000001 -7.518229 -2.884312 -6.771194 125.004824 0.014555 -0.000001 -7.368488 2.709474 -5.023661 1.161275 0.001350 -2.102139 -0.681085 -0.000002 -0.000022 -0.000003 0.000000 -0.000000 -0.000001 0.000001 0.000001 0.000001 -5.252222 -7.005667 -0.554221 -0.014856 -0.000001 -7.518231 9.273744 -1.341006 33.203387 -0.014554 -0.000000 -7.368487 6.332789 9.473585 -11.012948 -0.001350 -2.102139 -0.681085 0.000001 0.000026 -31.272318 0.000000 -0.000000 -0.000002 13.545340 -4.980741 12.701578 1.854171 -1.238866 -3.415686 0.050700 0.031410 2.084388 1.849695 -1.113863 -3.371104 -0.000000 0.000000 -0.000001 -2.242055 3.238901 4.387944 0.000001 0.000001 0.000001 0.084110 0.308220 1.656790 -6.368078 -1.986771 -19.674930 0.000000 -0.000000 -0.000003 -8.174989 4.460434 2.616489 7.775808 61.496066 57.629468 4.208010 0.000000 0.067693 -72.400565 0.000012 0.000022 4.447774 -0.000001 0.107698 4.008192 -9.368118 2.417437 -0.000001 0.000000 -0.000000 0.000000 0.000001 0.000001 -0.000001 0.000001 -0.000000 -0.000001 0.000001 0.000000 0.000005 -0.000000 0.000003 0.000001 0.000000 0.000002 4.686879 -4.247186 1.410224 9.277735 -13.168361 -49.913428 -4.208013 -0.000001 0.067693 92.441795 -0.000052 -0.000081 -4.447774 -0.000001 0.107699 5.844417 -13.309291 21.990083 -0.100283 0.186254 0.019922 0.000002 0.000001 -0.000001 0.000000 -0.000001 0.000000 -0.100284 0.186255 0.019922 0.000005 -0.000001 0.000000 
0.085286 -3.511856 14.747432 -4.476392 2.981915 8.226784 -0.000000 -0.000000 0.000001 0.000001 0.000000 0.000001 2.766658 -8.142719 -58.339917 0.014856 -0.000000 -7.518231 3.676159 -7.629591 101.261147 0.014554 0.000002 -7.368489 -1.163301 -10.604249 7.917535 0.001351 -2.102139 -0.681086 -0.000003 -0.000023 0.014843 0.000000 -0.000001 0.000001 -0.000004 0.000001 0.000001 -4.979190 -3.684485 17.801908 -0.014856 -0.000001 -7.518231 10.782512 2.032438 13.486213 -0.014555 -0.000002 -7.368487 2.261853 -4.249436 19.847299 -0.001350 -2.102139 -0.681085 -0.771634 1.105767 -35.747431 0.000000 -0.000000 -0.000000 15.690818 -2.250124 8.464479 2.036212 -1.128956 -2.032816 0.050700 0.031410 2.084389 2.028023 -1.000167 -2.061076 -0.000000 -0.000000 -0.000002 -2.820291 3.117495 5.757692 0.000001 0.000001 -0.000001 0.084110 0.308221 1.656790 -9.616177 -2.731731 -17.644392 0.000000 -0.000001 -0.000003 -7.965386 3.471967 2.529228 21.323825 67.190791 44.351926 4.208010 0.000000 0.067692 -81.523820 -0.000017 0.000004 4.447773 -0.000001 0.107699 8.731097 -13.356515 5.337118 0.000001 -0.000000 0.000000 0.000001 0.000001 -0.000000 0.000001 0.000001 -0.000001 0.000001 0.000000 0.000001 0.000004 -0.000002 0.000004 0.000001 0.000000 0.000001 4.125723 -3.293547 1.296025 9.129094 -10.902171 -47.222118 -4.208009 -0.000001 0.067693 112.087175 -0.000070 -0.000028 -4.447775 -0.000001 0.107699 -16.198697 -3.281736 18.767854 -0.100280 0.186256 0.019921 -0.000001 -0.000002 0.000001 0.000001 -0.000002 -0.000000 -0.100281 0.186256 0.019921 0.000001 -0.000002 0.000001 
0.031936 -6.504876 15.080143 -3.581057 1.746514 9.847951 -0.000000 0.000000 -0.000000 -0.000001 -0.000000 -0.000001 -0.363222 -9.533872 -58.393152 0.014855 -0.000001 -7.518232 11.062635 -6.988862 74.070185 0.014555 0.000001 -7.368487 -0.207823 -8.627013 1.187015 0.001350 -2.102139 -0.681086 -0.000004 -0.000021 -0.151225 0.000000 -0.000000 -0.000000 -0.000001 0.000001 0.000000 -6.277188 -3.199614 19.016251 -0.014856 -0.000001 -7.518232 8.462494 5.343399 24.724774 -0.014555 -0.000001 -7.368489 -4.283109 -12.134500 31.016172 -0.001350 -2.102141 -0.681086 0.000014 0.000018 2.184023 0.000000 0.000000 -0.000001 16.626125 -0.468853 4.076977 2.154330 -0.540434 -0.545430 0.050700 0.031411 2.084391 2.156437 -0.470617 -0.619679 -0.000000 0.000000 -0.000003 -3.278623 2.901737 5.195027 0.000002 0.000001 -0.000001 0.084110 0.308221 1.656788 -11.817834 -2.938089 -16.001646 0.000000 -0.000000 -0.000005 -7.887312 2.896325 2.489191 26.888069 65.861533 40.872214 4.208011 -0.000002 0.067693 -82.416983 -0.000013 0.000028 4.447770 -0.000001 0.107698 8.955476 -16.709771 3.820741 0.000001 0.000000 -0.000000 -0.000001 0.000000 -0.000001 -0.000001 0.000001 -0.000002 0.000001 0.000000 -0.000000 -0.000001 -0.000001 0.000003 0.000001 0.000001 -0.000001 3.869292 -3.122250 1.245081 9.122930 -6.651067 -48.866384 -4.208013 -0.000000 0.067693 121.715009 -0.000073 -0.000042 -4.447772 -0.000000 0.107699 -24.569012 5.599516 17.533925 -0.100281 0.186252 0.019923 -0.000001 -0.000001 0.000001 0.000001 -0.000003 0.000003 -0.100282 0.186253 0.019923 0.000001 0.000006 0.000003 
-0.010002 -9.422570 15.272987 -2.871667 1.877895 10.268690 -0.000000 0.000001 -0.000000 0.000000 0.000000 0.000001 -2.284215 -9.260546 -52.417563 0.014856 -0.000000 -7.518231 11.916499 -0.895661 45.991390 0.014555 0.000002 -7.368489 0.046607 -1.935947 -5.154949 0.001350 -2.102138 -0.681085 -0.000004 -0.000020 -0.307493 0.000000 0.000001 -0.000000 -0.000002 0.000001 0.000002 -7.326894 -1.882595 17.805301 -0.014856 0.000000 -7.518230 12.753729 -0.375227 43.647258 -0.014554 -0.000002 -7.368487 -2.382490 -12.689100 27.414387 -0.001350 -2.102141 -0.681085 0.000013 0.000022 -0.477398 0.000000 0.000000 -0.000001 16.743654 -1.069738 2.659403 2.205038 0.176159 0.065969 0.050700 0.031410 2.084392 2.197286 0.169673 0.074387 -0.000001 0.000001 -0.000004 -3.483015 3.030654 3.559599 0.000002 0.000001 -0.000003 0.084110 0.308222 1.656789 -12.497607 -3.287297 -15.746344 -0.000000 0.000000 -0.000006 -8.453282 4.211077 2.669960 23.152729 58.607169 47.491637 4.208009 -0.000001 0.067693 -77.670890 -0.000023 -0.000017 4.447772 -0.000000 0.107700 2.567676 -18.195568 -3.707554 0.000001 0.000000 -0.000000 -0.000000 0.000000 -0.000002 -0.000000 0.000001 -0.000001 0.000002 0.000000 0.000000 -0.000000 -0.000000 0.000007 0.000001 0.000001 -0.000002 4.218785 -3.219294 1.301601 10.232794 -1.122584 -54.741401 -4.208009 -0.000001 0.067695 119.682495 -0.000081 -0.000034 -4.447777 0.000002 0.107699 -21.601103 6.729926 18.602879 -0.100286 0.186254 0.019922 -0.000001 0.000002 -0.000002 0.000001 -0.000001 0.000001 -0.100285 0.186254 0.019922 0.000001 0.000005 -0.000002 
-0.034039 -12.205192 15.243581 -0.823081 1.204235 8.467066 -0.000000 0.000000 -0.000003 -0.000001 -0.000000 -0.000001 -1.414957 -5.435881 -44.765825 0.014856 0.000001 -7.518228 6.359421 4.359312 24.891663 0.014555 0.000000 -7.368486 -0.042421 1.960478 -8.819652 0.001350 -2.102141 -0.681085 -0.000006 -0.000021 -0.279730 0.000000 0.000000 -0.000002 -0.000002 0.000001 0.000002 -5.942005 -4.660251 13.429725 -0.014856 0.000001 -7.518232 7.703269 1.506175 69.936438 -0.014554 0.000000 -7.368487 -3.875536 -12.649330 27.813898 -0.001350 -2.102140 -0.681087 0.000014 0.000020 0.132221 0.000000 0.000000 -0.000003 14.001546 -0.733464 5.901207 1.850025 -0.044668 -0.201023 0.050700 0.031410 2.084389 1.830881 -0.057724 -0.144903 -0.000000 -0.000000 -0.000000 -3.286641 4.049677 2.438785 0.000001 0.000001 -0.000003 0.084110 0.308219 1.656789 -11.637402 -3.706739 -16.710913 0.000000 -0.000001 -0.000002 -9.644540 7.264384 3.047768 18.172669 48.193962 54.925096 4.208009 -0.000002 0.067693 -76.253441 -0.000010 0.000064 4.447774 -0.000003 0.107700 -4.613715 -23.167624 -12.201838 0.000002 -0.000001 -0.000000 -0.000000 0.000000 -0.000000 -0.000001 0.000001 -0.000002 0.000002 -0.000000 -0.000000 0.000006 0.000001 0.000004 0.000001 -0.000000 0.000002 4.563197 -3.229737 1.355818 11.278204 7.060105 -61.811942 -4.208010 -0.000002 0.067693 113.543753 -0.000075 -0.000028 -4.447773 0.000000 0.107698 -14.125428 6.431366 19.878494 -0.100285 0.186257 0.019922 0.000001 -0.000000 -0.000000 0.000000 -0.000001 0.000001 -0.100284 0.186257 0.019921 -0.000004 0.000002 -0.000000 
-0.007603 -15.002991 14.938346 3.116115 -0.655682 6.652734 -0.000000 0.000000 -0.000001 -0.000001 -0.000000 -0.000003 0.276681 1.808493 -39.438632 0.014856 -0.000000 -7.518231 6.581231 4.084204 19.581469 0.014555 -0.000002 -7.368488 0.142626 3.760000 -4.219985 0.001350 -2.102139 -0.681084 -0.000004 -0.000017 -1.961945 0.000000 0.000000 -0.000001 0.000001 0.000001 0.000001 -5.058562 -3.306568 6.891987 -0.014856 -0.000001 -7.518230 1.400724 4.945822 96.441431 -0.014554 -0.000000 -7.368487 -1.719545 -6.499354 23.394177 -0.001351 -2.102140 -0.681085 0.000014 0.000020 0.078283 0.000000 0.000000 -0.000002 8.606668 2.158506 10.578541 1.042893 -1.416239 -1.207372 0.050700 0.031408 2.084390 1.049733 -1.344267 -1.287724 -0.000000 0.000001 -0.000000 -2.724312 5.277005 2.499281 0.000001 0.000002 0.000001 0.084110 0.308220 1.656789 -9.631794 -3.963616 -18.779689 0.000000 0.000001 -0.000003 -10.952499 9.753822 3.434510 12.416160 37.712254 60.345022 4.208008 -0.000002 0.067692 -81.868587 0.000004 0.000006 4.447773 -0.000004 0.107698 -2.227771 -26.724022 -15.424459 0.000001 -0.000004 -0.000000 0.000001 0.000000 -0.000001 0.000001 0.000001 0.000000 0.000001 -0.000004 -0.000000 0.000005 0.000001 0.000004 0.000001 0.000002 0.000002 5.069745 -3.566680 1.432527 10.104674 17.799104 -66.921620 -4.208014 -0.000000 0.067694 103.318345 -0.000063 -0.000028 -4.447773 -0.000001 0.107698 -5.976912 11.033774 20.119548 -0.100282 0.186253 0.019923 0.000001 -0.000002 -0.000000 -0.000000 0.000001 -0.000001 -0.100281 0.186255 0.019921 0.000006 -0.000001 0.000002 
